# xmcd
# 
# Track frame offsets:
#     183
#     16818
#     29718
#     43178
#     57210
#     69203
#     80293
#     89410
#     105625
#     117980
#     135588
#     147693
#     164555
#     181265
#     196398
#     211163
#     228270
# 
# Disc length: 3254
# 
# Revision: 2
# Processed by: cddbd v1.5.2PL0 Copyright (c) Steve Scherf et al.
# Submitted via: fre:ac v1.0.31
# 
DISCID=ec0cb411
DTITLE=Various Artist - Country Collection CD 1
DYEAR=1993
DGENRE=Country
TTITLE0=Carpenters - Jambalaya (On The Bayou)
TTITLE1=Kenny Rogers - Ruby Don't Take Your Love To Town
TTITLE2=Linda Ronstadt - I Will Always Love You
TTITLE3=Elvis Costello - Good Year For The Roses
TTITLE4=Charlie Rich - Most Beautiful Girl
TTITLE5=Roger Miller - King Of The Road
TTITLE6=Frankie Laine - Rawhide
TTITLE7=The Charlie Daniels Band - The Devil Went Down To Georgia
TTITLE8=Nancy Sinatra - These Boots Are Made For Walkin'
TTITLE9=Tanya Tucker - The Best Of My Love
TTITLE10=George Jones and Tammy Wynette - Crying Time
TTITLE11=J.D.Souther - You're Only Lonely
TTITLE12=Tumbleweeds - Me And Bobby McGee
TTITLE13=Grant And Forsyth - Somewhere Between
TTITLE14=Piet Veerman - Together Again
TTITLE15=Gordon Lightfood - If You Could Read My Mind
TTITLE16=The Judds - Why Not Me?
EXTD=
EXTT0=
EXTT1=
EXTT2=
EXTT3=
EXTT4=
EXTT5=
EXTT6=
EXTT7=
EXTT8=
EXTT9=
EXTT10=
EXTT11=
EXTT12=
EXTT13=
EXTT14=
EXTT15=
EXTT16=
PLAYORDER=
